PathFileType	4	(X/Y/Z)	E:\Qualisys_Data\Carbon_Farble_Plate\Data\Amateur_Runner\S1\T1\S1T1V22_c3d.trc
DataRate	CameraRate	NumFrames	NumMarkers	Units	OrigDataRate	OrigDataStartFrame	OrigNumFrames
200.000000	200.000000	5	39	mm	200.000000	69	278
Frame#	Time	LSHO			RSHO			LICST			RICST			LASIS			LHEEL			RASIS			LTROC			RTROC			SACR			LTH1			LSK4			LTH2			LTH3			RHM5			LSK2			LTH4			RTH1			LTOE			RTH2			RTH3			RTH4			LLEP			RLEP			LSK1			LSK3			RSK1			LHM5			RSK2			LFT1			RSK3			RSK4			LLME			RLME			RTOE			RHEEL			RFT1			RFT2			LFT2			
		X1	Y1	Z1	X2	Y2	Z2	X3	Y3	Z3	X4	Y4	Z4	X5	Y5	Z5	X6	Y6	Z6	X7	Y7	Z7	X8	Y8	Z8	X9	Y9	Z9	X10	Y10	Z10	X11	Y11	Z11	X12	Y12	Z12	X13	Y13	Z13	X14	Y14	Z14	X15	Y15	Z15	X16	Y16	Z16	X17	Y17	Z17	X18	Y18	Z18	X19	Y19	Z19	X20	Y20	Z20	X21	Y21	Z21	X22	Y22	Z22	X23	Y23	Z23	X24	Y24	Z24	X25	Y25	Z25	X26	Y26	Z26	X27	Y27	Z27	X28	Y28	Z28	X29	Y29	Z29	X30	Y30	Z30	X31	Y31	Z31	X32	Y32	Z32	X33	Y33	Z33	X34	Y34	Z34	X35	Y35	Z35	X36	Y36	Z36	X37	Y37	Z37	X38	Y38	Z38	X39	Y39	Z39	

70	0.345	-1324.829956054688	1548.38427734375	-510.7222595214844	-1247.03369140625	1538.658813476562	-199.0538024902344	-1290.06396484375	1076.56005859375	-483.4011535644531	-1284.117797851562	1090.754028320312	-190.0704040527344	-1246.984375	1038.623168945312	-454.7149353027344	-1110.306274414062	104.6992263793945	-380.1357421875	-1248.8564453125	1040.103759765625	-196.2256317138672	-1338.714111328125	949.2112426757812	-505.1739807128906	-1373.933349609375	967.2617797851562	-165.1786193847656	-1406.096923828125	1099.649047851562	-332.2898559570312	-1176.342407226562	828.687744140625	-468.1927185058594	-1156.967529296875	270.9232788085938	-418.5577392578125	-1247.50048828125	798.3858642578125	-506.547119140625	-1144.288696289062	730.32763671875	-453.9835510253906	-1822.79248046875	212.0750579833984	-219.7091674804688	-1176.216674804688	365.376953125	-458.5552062988281	-1222.485473632812	703.1761474609375	-482.011962890625	-1281.145751953125	809.3524169921875	-191.8648986816406	-874.859130859375	206.4563751220703	-402.2911987304688	-1352.634643554688	825.4966430664062	-164.1873474121094	-1307.570068359375	712.5027465820312	-202.9939727783203	-1381.782836914062	731.0278930664062	-180.4100799560547	-1142.894653320312	577.748046875	-443.920166015625	-1418.110961914062	561.2330322265625	-219.62841796875	-1092.837890625	378.1365966796875	-454.818603515625	-1081.363647460938	277.4579162597656	-448.3821411132812	-1581.674438476562	460.0503540039062	-208.3578491210938	-926.9328002929688	157.0092010498047	-456.3309936523438	-1622.054809570312	528.3800659179688	-226.6876983642578	-1087.980224609375	88.9944839477539	-353.8465576171875	-1665.629150390625	405.1904907226562	-222.8222503662109	-1704.463012695312	471.1723327636719	-252.1475524902344	-1074.721313476562	146.0894165039062	-435.0276184082031	-1794.70849609375	359.7431030273438	-231.1782684326172	-1766.084716796875	159.139404296875	-289.3677062988281	-1844.9677734375	401.4345397949219	-277.7601013183594	-1864.700317382812	383.6923522949219	-315.47998046875	-1872.20751953125	387.5313110351562	-257.1918334960938	-1093.107421875	75.98194122314453	-405.6558532714844
71	0.35	-1302.486938476562	1546.337890625	-511.9503479003906	-1226.047973632812	1537.495971679688	-199.7109985351562	-1269.107177734375	1074.141479492188	-482.5454711914062	-1264.006225585938	1089.196655273438	-189.7118072509766	-1226.369384765625	1037.050415039062	-454.3927917480469	-1088.641723632812	101.9905166625977	-378.4693603515625	-1228.185791015625	1038.9072265625	-195.5197601318359	-1318.08056640625	946.6868286132812	-504.6632690429688	-1351.364868164062	964.6489868164062	-163.7533111572266	-1385.01806640625	1097.594116210938	-332.0888061523438	-1157.52587890625	823.2894287109375	-467.9239807128906	-1136.229125976562	267.6318969726562	-417.5243835449219	-1229.375366210938	794.7072143554688	-506.6402587890625	-1128.158447265625	724.3018188476562	-453.5057983398438	-1803.974853515625	222.4081726074219	-218.8371429443359	-1156.372680664062	362.4452514648438	-457.3775634765625	-1206.22998046875	698.6438598632812	-483.6624450683594	-1257.531005859375	807.4595336914062	-191.65283203125	-854.8165283203125	207.0358581542969	-400.7638854980469	-1329.083618164062	822.7667236328125	-163.4355316162109	-1282.269165039062	710.027099609375	-202.6441955566406	-1357.068115234375	727.95458984375	-179.4112091064453	-1126.106079101562	574.731201171875	-442.9017333984375	-1391.0625	558.006591796875	-218.2709655761719	-1073.50341796875	375.72021484375	-453.05126953125	-1060.731567382812	275.3871765136719	-446.7374877929688	-1557.105346679688	461.3460083007812	-207.6211090087891	-906.3306884765624	156.7024841308594	-455.0451049804688	-1596.10498046875	530.545654296875	-226.2686462402344	-1066.278076171875	86.35075378417969	-352.5619812011719	-1642.133178710938	408.8551025390625	-221.8305816650391	-1678.363891601562	476.1311645507812	-251.1508026123047	-1053.494506835938	144.130615234375	-433.909423828125	-1771.918823242188	368.5192260742188	-230.3795166015625	-1748.37841796875	167.4865112304688	-288.3303833007812	-1821.684692382812	411.4910278320312	-277.3925476074219	-1841.811279296875	393.178955078125	-315.0517272949219	-1849.31298828125	398.692138671875	-257.4397888183594	-1071.145629882812	73.38189697265625	-404.6768493652344
72	0.355	-1279.94873046875	1543.9658203125	-513.036376953125	-1205.139282226562	1536.243530273438	-200.3475341796875	-1248.615112304688	1072.166015625	-482.7444458007812	-1243.14404296875	1087.279052734375	-188.8322601318359	-1205.029296875	1035.487426757812	-453.9736938476562	-1069.245239257812	99.12628173828124	-376.5974731445312	-1206.995361328125	1037.284912109375	-194.86767578125	-1297.937377929688	944.3567504882812	-504.14697265625	-1329.841674804688	961.7923583984376	-162.6913452148438	-1364.716918945312	1095.228515625	-331.7320556640625	-1139.159423828125	817.7138061523438	-468.6899719238281	-1116.821166992188	265.07177734375	-415.9723205566406	-1211.903686523438	791.611572265625	-506.6014099121094	-1112.075073242188	718.375244140625	-454.1484069824219	-1785.764526367188	231.2645111083984	-217.8283233642578	-1135.671020507812	359.4039916992188	-455.6719665527344	-1190.05224609375	694.9275512695312	-486.6883239746094	-1233.392211914062	805.8001708984375	-191.2557067871094	-835.7703247070312	206.0748901367188	-399.3385620117188	-1305.039184570312	819.6097412109375	-162.9425506591797	-1256.693603515625	708.2050170898438	-201.2101287841797	-1331.681518554688	724.0634765625	-178.7223052978516	-1108.25244140625	571.94384765625	-440.9780578613281	-1364.3271484375	554.1456909179688	-217.3133392333984	-1053.427612304688	373.043212890625	-451.0164184570312	-1040.669311523438	272.7489929199219	-444.8684387207031	-1531.423217773438	462.2137451171875	-206.8377838134766	-886.8909301757812	155.5221099853516	-453.3450927734375	-1568.970703125	532.4879150390625	-225.3656768798828	-1046.672607421875	83.27745056152344	-350.8450012207031	-1617.912963867188	412.1963806152344	-221.7265167236328	-1652.684326171875	480.6752014160156	-249.7427062988281	-1034.589477539062	141.7039794921875	-432.1069030761719	-1749.25634765625	376.2560729980469	-230.6637268066406	-1730.259033203125	175.0195159912109	-287.3676147460938	-1797.266845703125	421.0023498535156	-276.6808166503906	-1817.569458007812	403.0994567871094	-313.9645080566406	-1825.231079101562	408.8625793457031	-256.2493591308594	-1051.314697265625	70.61753845214844	-403.0277709960938
73	0.36	-1257.793823242188	1541.394897460938	-513.7498168945312	-1184.358032226562	1534.380981445312	-201.0008087158203	-1228.080688476562	1069.61962890625	-482.003662109375	-1222.48974609375	1085.097045898438	-188.2519989013672	-1184.640625	1033.236572265625	-453.3663635253906	-1050.72314453125	96.18721771240234	-375.25634765625	-1186.193481445312	1035.173461914062	-194.4190521240234	-1277.518920898438	941.61865234375	-503.1033630371094	-1307.390014648438	958.5306396484376	-160.8170471191406	-1343.930297851562	1092.868408203125	-330.9533386230469	-1120.9365234375	813.4966430664062	-468.74853515625	-1098.280883789062	261.4970703125	-414.844482421875	-1193.7666015625	788.9158325195312	-507.2423706054688	-1097.11767578125	713.05078125	-454.8020629882812	-1763.741333007812	240.7271423339844	-216.3309936523438	-1116.771118164062	356.3334045410156	-454.5346374511719	-1173.511840820312	691.6638793945312	-487.5998840332031	-1209.668701171875	803.7278442382812	-191.0166015625	-818.0823974609375	203.438232421875	-397.5740356445312	-1281.313110351562	816.359619140625	-161.5520629882812	-1231.320190429688	705.5618286132812	-200.3025512695312	-1306.166381835938	720.5847778320312	-177.4643249511719	-1090.245971679688	569.564208984375	-439.9367370605469	-1336.422241210938	550.2136840820312	-216.4803466796875	-1034.82666015625	369.8298645019531	-448.8418884277344	-1022.179931640625	269.6961669921875	-442.5803527832031	-1505.173950195312	461.9617614746094	-206.81494140625	-869.7341918945312	153.26416015625	-451.6197204589844	-1540.5244140625	533.86279296875	-223.8892364501953	-1028.06396484375	79.92537689208984	-349.0679931640625	-1593.51513671875	414.4337768554688	-221.7168884277344	-1625.974487304688	484.6133422851562	-249.1021423339844	-1016.418701171875	138.3546142578125	-429.7434387207031	-1724.078857421875	384.1963806152344	-229.4714202880859	-1710.917358398438	182.9370727539062	-286.4523315429688	-1772.35595703125	430.1566772460938	-276.8548889160156	-1793.444458007812	413.4111938476562	-314.1893615722656	-1800.182006835938	418.4031677246094	-255.8434753417969	-1033.0703125	67.62631225585938	-401.2203063964844
74	0.365	-1235.28173828125	1537.884887695312	-514.9278564453125	-1162.961547851562	1532.302490234375	-201.5285797119141	-1208.763671875	1067.363647460938	-481.9572448730469	-1201.895141601562	1082.471435546875	-186.9816589355469	-1163.920654296875	1030.611572265625	-454.1550598144531	-1034.622192382812	92.11092376708984	-371.9710998535156	-1165.185424804688	1032.740356445312	-193.5409851074219	-1257.785522460938	939.5654296875	-502.7763366699219	-1285.32421875	954.83984375	-159.1524963378906	-1323.239135742188	1089.731567382812	-329.8580322265625	-1102.185913085938	810.7283935546875	-469.2785949707031	-1081.526733398438	257.8357849121094	-413.5277099609375	-1175.534423828125	786.69482421875	-508.4298095703125	-1078.691040039062	710.3178100585938	-455.8666381835938	-1740.465942382812	250.1553192138672	-214.4480895996094	-1098.83935546875	352.830810546875	-453.2418823242188	-1155.710083007812	689.2315673828125	-487.3976135253906	-1185.604125976562	801.0994262695312	-190.1287384033203	-801.6181640625	199.2399444580078	-396.2971801757812	-1257.666259765625	812.4971923828125	-160.8379516601562	-1205.461303710938	702.9605102539062	-198.7116088867188	-1281.148315429688	716.7596435546875	-176.0827178955078	-1071.75341796875	566.8187866210938	-438.9528198242188	-1308.605712890625	545.855224609375	-215.4542694091797	-1016.605102539062	366.5376892089844	-446.4674682617188	-1004.6171875	265.876220703125	-440.0310668945312	-1478.786865234375	461.7060852050781	-206.6927947998047	-854.0529174804688	149.6268005371094	-449.4729919433594	-1512.176025390625	534.7319946289062	-223.1383361816406	-1011.475708007812	76.59754180908203	-346.3749694824219	-1567.957275390625	416.8792114257812	-221.5376739501953	-1598.519165039062	488.2466430664062	-247.6412811279297	-1000.468872070312	135.3957672119141	-427.8367614746094	-1699.740356445312	391.4037780761719	-229.4401702880859	-1690.502319335938	190.0014495849609	-285.5358276367188	-1745.629150390625	438.2573547363281	-276.3767395019531	-1767.945678710938	421.9861145019531	-313.3965148925781	-1773.45947265625	427.6821594238281	-254.8017730712891	-1016.491638183594	64.4056625366211	-398.7129516601562
